<svg version="1.1" id="Capa_1" xmlns="http://www.w3.org/2000/svg" xmlns:xlink="http://www.w3.org/1999/xlink" x="0px" y="0px"
	 viewBox="0 0 512 512" style="enable-background:new 0 0 512 512;" xml:space="preserve">
<g><path d="m340.517 38.931h-48.093v-22.419c0-9.12 7.392-16.512 16.511-16.512h15.07c9.119 0 16.512 7.392 16.512 16.512z" fill="#cbc4cc"/><path d="m340.512 16.509v15.616h-20.079v-15.616c0-8.264-6.069-15.109-14.001-16.32.818-.124 1.657-.187 2.506-.187h15.067c9.124 0 16.507 7.394 16.507 16.507z" fill="#b5adb6"/><path d="m357.28 73.006h-202.56l-22.172 51.472v168.025 168.025l19.837 46.052c1.417 3.289 4.655 5.42 8.236 5.42h190.757c3.581 0 6.819-2.131 8.236-5.42l19.837-46.052v-168.025-168.025z" fill="#cbc4cc"/><path d="m379.45 124.479v336.051l-19.831 46.052c-1.419 3.283-4.66 5.416-8.243 5.416h-20.711c3.583 0 6.824-2.133 8.243-5.416l19.831-46.052v-336.051l-22.171-51.478h20.711z" fill="#b5adb6"/><path d="m364.652 75.355h-217.304c-11.937 0-21.614-9.677-21.614-21.614 0-11.937 9.677-21.614 21.614-21.614h217.304c11.937 0 21.614 9.677 21.614 21.614 0 11.937-9.677 21.614-21.614 21.614z" fill="#f3f0f3"/><path d="m386.264 53.737c0 5.975-2.413 11.37-6.327 15.285-3.914 3.904-9.32 6.327-15.285 6.327h-20.712c5.965 0 11.37-2.423 15.285-6.327 3.914-3.914 6.327-9.31 6.327-15.285 0-11.93-9.672-21.612-21.612-21.612h20.711c11.941 0 21.613 9.683 21.613 21.612z" fill="#e2dee2"/><path d="m379.451 460.528h-120.099l-5.625-3.337-71.48-.452-15.008 3.789h-34.69v-336.05h132.111l3.091 3.363 69.67.453 7.34-3.816h34.69z" fill="#e94444"/><path d="m358.74 124.478h20.711v336.051h-20.711z" fill="#d83131"/><path d="m167.239 460.461c38.765-13.618 59.622-57.867 64.231-99.661s-2.766-84.11.07-126.07c2.615-38.685 14.045-76.713 33.12-110.183h80.102c-19.074 33.47-30.505 71.498-33.12 110.183-3.226 47.731-.173 95.383-4.004 143.138-2.669 33.273-14.07 70.575-48.285 82.595h-92.114z" fill="#f3f0f3"/><path d="m344.758 124.541c-19.075 33.47-30.497 71.506-33.117 110.184-3.221 47.729-.176 95.386-4.008 143.136-2.661 33.283-14.063 70.584-48.278 82.597h-27.464c34.215-12.013 53.001-49.314 55.673-82.597 3.821-47.75.777-95.407 3.997-143.136 2.62-38.678 14.052-76.715 33.117-110.184z" fill="#e2dee2"/></g></svg>