<svg version="1.1" id="Capa_1" xmlns="http://www.w3.org/2000/svg" xmlns:xlink="http://www.w3.org/1999/xlink" x="0px" y="0px"
	 viewBox="0 0 512 512" style="enable-background:new 0 0 512 512;" xml:space="preserve">
<path style="fill:#D8D7DA;" d="M408.751,59.849V452.15c0,17.357-14.052,31.43-31.398,31.461h3.568v13.315
	c0,8.326-6.747,15.073-15.073,15.073H152.557c-8.326,0-15.073-6.747-15.073-15.073v-13.315h-2.768
	c-17.378,0-31.461-14.083-31.461-31.461V59.849c0-17.367,14.083-31.461,31.461-31.461h2.768V15.073
	C137.484,6.747,144.231,0,152.557,0h213.292c8.326,0,15.073,6.747,15.073,15.073v13.315h-3.537
	C394.72,28.44,408.751,42.513,408.751,59.849z"/>
<g>
	<path style="fill:#C6C5CA;" d="M365.846,0H152.56c-8.323,0-15.071,6.747-15.071,15.071v13.32h243.428v-13.32
		C380.917,6.747,374.169,0,365.846,0z"/>
	<path style="fill:#C6C5CA;" d="M380.917,483.609H137.489v13.32c0,8.323,6.747,15.071,15.071,15.071h213.286
		c8.323,0,15.071-6.747,15.071-15.071V483.609z"/>
</g>
<path style="fill:#FF6243;" d="M408.751,59.849V452.15c0,17.378-14.083,31.461-31.461,31.461H134.716
	c-17.378,0-31.461-14.083-31.461-31.461V59.849c0-17.367,14.083-31.461,31.461-31.461H377.29
	C394.667,28.388,408.751,42.482,408.751,59.849z"/>
<path style="fill:#FF3501;" d="M143.252,452.15V59.849c0-17.367,14.083-31.461,31.461-31.461h-39.997
	c-17.378,0-31.461,14.094-31.461,31.461V452.15c0,17.378,14.083,31.461,31.461,31.461h39.997
	C157.335,483.611,143.252,469.528,143.252,452.15z"/>
<rect x="103.249" y="87.152" style="fill:#FFCD96;" width="305.496" height="344.399"/>
<path style="fill:#884D00;" d="M254.717,188.266c-0.186,0-0.374-0.006-0.563-0.02c-4.349-0.306-7.627-4.08-7.321-8.43l4.885-69.361
	c0.306-4.349,4.088-7.636,8.429-7.32c4.349,0.306,7.627,4.08,7.321,8.43l-4.885,69.361
	C262.291,185.087,258.825,188.266,254.717,188.266z"/>
<circle style="fill:#FF9811;" cx="256.987" cy="281.782" r="101.436"/>
<g>
	<circle style="fill:#CC7400;" cx="193.012" cy="246.984" r="6.28"/>
	<circle style="fill:#CC7400;" cx="215.653" cy="246.984" r="6.28"/>
	<circle style="fill:#CC7400;" cx="204.295" cy="263.752" r="6.28"/>
</g>
<g>
	<path style="fill:#00B939;" d="M339.272,146.649c4.589,1.353,6.312,6.959,3.275,10.654c-8.333,10.14-24.553,27.405-42.188,32.825
		c-25.507,7.841-40.329,0.895-44.313-12.068c-3.984-12.962,4.378-27.034,29.884-34.874
		C303.565,137.767,326.682,142.939,339.272,146.649z"/>
	<path style="fill:#00B939;" d="M170.907,144.88c-2.311-4.188,0.407-9.386,5.166-9.877c13.055-1.347,36.728-2.211,53.077,6.339
		c23.646,12.367,29.297,27.729,23.012,39.745c-6.285,12.016-22.126,16.138-45.772,3.771
		C190.043,176.308,177.248,156.372,170.907,144.88z"/>
</g>
<path style="fill:#FFA733;" d="M358.422,281.778c0,56.022-45.419,101.441-101.441,101.441c-34.377,0-64.752-17.101-83.092-43.253
	L339.118,222.26C351.262,238.975,358.422,259.537,358.422,281.778z"/>
<path style="fill:#EE8700;" d="M325.082,284.782c-0.274,5.273-1.147,10.505-2.621,15.578c-8.117,28.211-33.373,48.086-62.501,49.534
	c-5.284,0.263-10.568-0.084-15.757-1.032c-17.009-3.084-32.872-12.547-43.692-27.735l47.66-33.956l17.388-12.389l46.86-33.377
	C321.777,254.531,325.861,269.835,325.082,284.782z"/>
<path style="fill:#FFB655;" d="M322.462,300.36l-48.513-8.157l28.556,40.071c-1.937,1.758-3.989,3.41-6.168,4.958
	c-2.179,1.547-4.41,2.958-6.694,4.21l-27.809-38.961l-1.874,47.413c-5.284,0.263-10.568-0.084-15.757-1.032l3.968-61.691
	l17.388-12.389l59.523,9.999C324.809,290.055,323.935,295.286,322.462,300.36z"/>
<rect x="103.249" y="87.152" style="fill:#FFA733;" width="39.997" height="344.399"/>
<g>
	<path style="fill:#ACABB1;" d="M192.554,0c-8.326,0-15.073,6.747-15.073,15.073v13.315h-39.997V15.073
		C137.484,6.747,144.231,0,152.557,0H192.554z"/>
	<path style="fill:#ACABB1;" d="M192.554,511.999h-39.997c-8.326,0-15.073-6.747-15.073-15.073v-13.315h39.997v13.315
		C177.481,505.252,184.228,511.999,192.554,511.999z"/>
</g>
<g>
</g>
<g>
</g>
<g>
</g>
<g>
</g>
<g>
</g>
<g>
</g>
<g>
</g>
<g>
</g>
<g>
</g>
<g>
</g>
<g>
</g>
<g>
</g>
<g>
</g>
<g>
</g>
<g>
</g>
</svg>
