<svg version="1.1" id="Capa_1" xmlns="http://www.w3.org/2000/svg" xmlns:xlink="http://www.w3.org/1999/xlink" x="0px" y="0px"
	 viewBox="0 0 512 512" style="enable-background:new 0 0 512 512;" xml:space="preserve">
<g><path d="m340.517 40.51h-48.093v-23.998c0-9.12 7.392-16.512 16.511-16.512h15.07c9.119 0 16.512 7.392 16.512 16.512z" fill="#cbc4cc"/><path d="m340.512 16.509v15.616h-20.079v-15.616c0-8.264-6.069-15.109-14.001-16.32.818-.124 1.657-.187 2.506-.187h15.067c9.124 0 16.507 7.394 16.507 16.507z" fill="#b5adb6"/><path d="m357.28 73.006h-202.56l-22.172 51.472v168.025 168.025l19.837 46.052c1.417 3.289 4.655 5.42 8.236 5.42h190.757c3.581 0 6.819-2.131 8.236-5.42l19.837-46.052v-168.025-168.025z" fill="#cbc4cc"/><path d="m379.45 124.479v336.051l-19.831 46.052c-1.419 3.283-4.66 5.416-8.243 5.416h-20.711c3.583 0 6.824-2.133 8.243-5.416l19.831-46.052v-336.051l-22.171-51.478h20.711z" fill="#b5adb6"/><path d="m364.652 75.355h-217.304c-11.937 0-21.614-9.677-21.614-21.614 0-11.937 9.677-21.614 21.614-21.614h217.304c11.937 0 21.614 9.677 21.614 21.614 0 11.937-9.677 21.614-21.614 21.614z" fill="#f3f0f3"/><path d="m386.264 53.737c0 5.975-2.413 11.37-6.327 15.285-3.914 3.904-9.32 6.327-15.285 6.327h-20.712c5.965 0 11.37-2.423 15.285-6.327 3.914-3.914 6.327-9.31 6.327-15.285 0-11.93-9.672-21.612-21.612-21.612h20.711c11.941 0 21.613 9.683 21.613 21.612z" fill="#e2dee2"/><path d="m132.549 124.478h246.903v336.051h-246.903z" fill="#bbec6c"/><path d="m358.74 124.478h20.711v336.051h-20.711z" fill="#a2e62e"/><path d="m132.549 246.013h246.903v92.766h-246.903z" fill="#fee45a"/><path d="m358.738 246.013h20.713v92.766h-20.713z" fill="#fedf30"/><ellipse cx="256" cy="279.973" fill="#00c27a" rx="80.803" ry="113.933"/><path d="m336.805 279.969c0 62.931-36.183 113.933-80.805 113.933-6.4 0-12.634-1.046-18.609-3.045 43.1-2.423 77.502-52.462 77.502-113.829 0-53.901-26.531-99.041-62.186-110.888 1.087-.072 2.185-.104 3.293-.104 44.623 0 80.805 51.012 80.805 113.933z" fill="#08b865"/></g></svg>